<svg width="48" height="48" viewBox="0 0 48 48" fill="none" xmlns="http://www.w3.org/2000/svg">
<g clip-path="url(#clip0_69_148)">
<path d="M19.3433 20.7601L27.9403 10.92H40.8358L48 18.8678V34.0063L40.8739 41.954H27.9609L19.3433 32.1139V20.7601Z" fill="#AC92F5"/>
<path d="M24.7164 22.2739L29.7314 16.5969H38.6866L42.9851 21.1385V31.7354L38.6866 36.277H29.7314L24.7164 30.7465V22.2739Z" fill="#FDFDFD"/>
<path d="M5.37317 26.437L18.2687 10.92H26.1493L12.5373 26.437L26.1493 41.954H18.2687L5.37317 26.437Z" fill="#12111A"/>
<path d="M0 42V11.6769L5.73134 6V23.7877L3.9403 26.437L5.73134 30.6001V41.9539L0 42Z" fill="#12111A"/>
<path d="M39.0035 25.1389C39.3503 25.5045 39.7603 25.7966 40.2111 25.9993C40.3871 26.0793 40.7901 26.2724 40.9759 26.3217C40.3136 26.5017 39.4876 27.0174 39.0035 27.5278C38.6574 27.8943 38.381 28.3274 38.1891 28.8037C38.1131 28.9906 37.9078 29.4163 37.8611 29.6127C37.6906 28.9129 37.2256 28.0393 36.7424 27.5278C36.3955 27.1622 35.9856 26.8702 35.5348 26.6674C35.3579 26.5871 34.9318 26.3711 34.7462 26.3217C34.9318 26.2721 35.3584 26.0796 35.5348 25.9993C35.9856 25.7965 36.3955 25.5045 36.7424 25.1389C37.2253 24.6274 37.6903 23.7304 37.8611 23.0308C38.0315 23.7305 38.5204 24.6275 39.0035 25.1389Z" fill="#AC92F5"/>
</g>
<defs>
<clipPath id="clip0_69_148">
<rect width="48" height="36" fill="white" transform="translate(0 6)"/>
</clipPath>
</defs>
</svg>
