<svg width="680" height="129" viewBox="0 0 680 129" fill="none" xmlns="http://www.w3.org/2000/svg">
<rect width="680" height="129" rx="22" fill="#12111A"/>
<path d="M205.025 86L189.24 68.51V86H184.235V47.665H189.24V65.43L205.08 47.665H211.405L194.025 66.86L211.57 86H205.025ZM244.66 69.775C244.66 70.7283 244.605 71.7367 244.495 72.8H220.405C220.588 75.77 221.596 78.0983 223.43 79.785C225.3 81.435 227.555 82.26 230.195 82.26C232.358 82.26 234.155 81.765 235.585 80.775C237.051 79.7483 238.078 78.3917 238.665 76.705H244.055C243.248 79.6017 241.635 81.9667 239.215 83.8C236.795 85.5967 233.788 86.495 230.195 86.495C227.335 86.495 224.768 85.8533 222.495 84.57C220.258 83.2867 218.498 81.4717 217.215 79.125C215.931 76.7417 215.29 73.9917 215.29 70.875C215.29 67.7583 215.913 65.0267 217.16 62.68C218.406 60.3333 220.148 58.5367 222.385 57.29C224.658 56.0067 227.261 55.365 230.195 55.365C233.055 55.365 235.585 55.9883 237.785 57.235C239.985 58.4817 241.671 60.205 242.845 62.405C244.055 64.5683 244.66 67.025 244.66 69.775ZM239.49 68.73C239.49 66.8233 239.068 65.1917 238.225 63.835C237.381 62.4417 236.226 61.3967 234.76 60.7C233.33 59.9667 231.735 59.6 229.975 59.6C227.445 59.6 225.281 60.4067 223.485 62.02C221.725 63.6333 220.716 65.87 220.46 68.73H239.49ZM278.766 69.775C278.766 70.7283 278.711 71.7367 278.601 72.8H254.511C254.695 75.77 255.703 78.0983 257.536 79.785C259.406 81.435 261.661 82.26 264.301 82.26C266.465 82.26 268.261 81.765 269.691 80.775C271.158 79.7483 272.185 78.3917 272.771 76.705H278.161C277.355 79.6017 275.741 81.9667 273.321 83.8C270.901 85.5967 267.895 86.495 264.301 86.495C261.441 86.495 258.875 85.8533 256.601 84.57C254.365 83.2867 252.605 81.4717 251.321 79.125C250.038 76.7417 249.396 73.9917 249.396 70.875C249.396 67.7583 250.02 65.0267 251.266 62.68C252.513 60.3333 254.255 58.5367 256.491 57.29C258.765 56.0067 261.368 55.365 264.301 55.365C267.161 55.365 269.691 55.9883 271.891 57.235C274.091 58.4817 275.778 60.205 276.951 62.405C278.161 64.5683 278.766 67.025 278.766 69.775ZM273.596 68.73C273.596 66.8233 273.175 65.1917 272.331 63.835C271.488 62.4417 270.333 61.3967 268.866 60.7C267.436 59.9667 265.841 59.6 264.081 59.6C261.551 59.6 259.388 60.4067 257.591 62.02C255.831 63.6333 254.823 65.87 254.566 68.73H273.596ZM290.378 61.415C291.368 59.6917 292.834 58.2617 294.778 57.125C296.758 55.9517 299.049 55.365 301.653 55.365C304.329 55.365 306.749 56.0067 308.913 57.29C311.113 58.5733 312.836 60.3883 314.083 62.735C315.329 65.045 315.953 67.74 315.953 70.82C315.953 73.8633 315.329 76.5767 314.083 78.96C312.836 81.3433 311.113 83.195 308.913 84.515C306.749 85.835 304.329 86.495 301.653 86.495C299.086 86.495 296.813 85.9267 294.833 84.79C292.889 83.6167 291.404 82.1683 290.378 80.445V100.3H285.373V55.86H290.378V61.415ZM310.838 70.82C310.838 68.5467 310.379 66.5667 309.463 64.88C308.546 63.1933 307.299 61.91 305.723 61.03C304.183 60.15 302.478 59.71 300.608 59.71C298.774 59.71 297.069 60.1683 295.493 61.085C293.953 61.965 292.706 63.2667 291.753 64.99C290.836 66.6767 290.378 68.6383 290.378 70.875C290.378 73.1483 290.836 75.1467 291.753 76.87C292.706 78.5567 293.953 79.8583 295.493 80.775C297.069 81.655 298.774 82.095 300.608 82.095C302.478 82.095 304.183 81.655 305.723 80.775C307.299 79.8583 308.546 78.5567 309.463 76.87C310.379 75.1467 310.838 73.13 310.838 70.82ZM339.921 86.385C336.364 86.385 333.119 85.56 330.186 83.91C327.252 82.2233 324.924 79.895 323.201 76.925C321.514 73.9183 320.671 70.545 320.671 66.805C320.671 63.065 321.514 59.71 323.201 56.74C324.924 53.7333 327.252 51.405 330.186 49.755C333.119 48.0683 336.364 47.225 339.921 47.225C343.514 47.225 346.777 48.0683 349.711 49.755C352.644 51.405 354.954 53.715 356.641 56.685C358.327 59.655 359.171 63.0283 359.171 66.805C359.171 70.5817 358.327 73.955 356.641 76.925C354.954 79.895 352.644 82.2233 349.711 83.91C346.777 85.56 343.514 86.385 339.921 86.385ZM339.921 82.04C342.597 82.04 344.999 81.4167 347.126 80.17C349.289 78.9233 350.976 77.145 352.186 74.835C353.432 72.525 354.056 69.8483 354.056 66.805C354.056 63.725 353.432 61.0483 352.186 58.775C350.976 56.465 349.307 54.6867 347.181 53.44C345.054 52.1933 342.634 51.57 339.921 51.57C337.207 51.57 334.787 52.1933 332.661 53.44C330.534 54.6867 328.847 56.465 327.601 58.775C326.391 61.0483 325.786 63.725 325.786 66.805C325.786 69.8483 326.391 72.525 327.601 74.835C328.847 77.145 330.534 78.9233 332.661 80.17C334.824 81.4167 337.244 82.04 339.921 82.04ZM370.783 60.755C371.663 59.0317 372.91 57.6933 374.523 56.74C376.173 55.7867 378.171 55.31 380.518 55.31V60.48H379.198C373.588 60.48 370.783 63.5233 370.783 69.61V86H365.778V55.86H370.783V60.755ZM398.726 55.365C401.329 55.365 403.602 55.9333 405.546 57.07C407.526 58.2067 408.992 59.6367 409.946 61.36V55.86H415.006V86.66C415.006 89.41 414.419 91.8483 413.246 93.975C412.072 96.1383 410.386 97.825 408.186 99.035C406.022 100.245 403.492 100.85 400.596 100.85C396.636 100.85 393.336 99.915 390.696 98.045C388.056 96.175 386.497 93.6267 386.021 90.4H390.971C391.521 92.2333 392.657 93.7 394.381 94.8C396.104 95.9367 398.176 96.505 400.596 96.505C403.346 96.505 405.582 95.6433 407.306 93.92C409.066 92.1967 409.946 89.7767 409.946 86.66V80.335C408.956 82.095 407.489 83.5617 405.546 84.735C403.602 85.9083 401.329 86.495 398.726 86.495C396.049 86.495 393.611 85.835 391.411 84.515C389.247 83.195 387.542 81.3433 386.296 78.96C385.049 76.5767 384.426 73.8633 384.426 70.82C384.426 67.74 385.049 65.045 386.296 62.735C387.542 60.3883 389.247 58.5733 391.411 57.29C393.611 56.0067 396.049 55.365 398.726 55.365ZM409.946 70.875C409.946 68.6017 409.487 66.6217 408.571 64.935C407.654 63.2483 406.407 61.965 404.831 61.085C403.291 60.1683 401.586 59.71 399.716 59.71C397.846 59.71 396.141 60.15 394.601 61.03C393.061 61.91 391.832 63.1933 390.916 64.88C389.999 66.5667 389.541 68.5467 389.541 70.82C389.541 73.13 389.999 75.1467 390.916 76.87C391.832 78.5567 393.061 79.8583 394.601 80.775C396.141 81.655 397.846 82.095 399.716 82.095C401.586 82.095 403.291 81.655 404.831 80.775C406.407 79.8583 407.654 78.5567 408.571 76.87C409.487 75.1467 409.946 73.1483 409.946 70.875ZM421.594 70.82C421.594 67.74 422.217 65.045 423.464 62.735C424.71 60.3883 426.415 58.5733 428.579 57.29C430.779 56.0067 433.217 55.365 435.894 55.365C438.534 55.365 440.825 55.9333 442.769 57.07C444.712 58.2067 446.16 59.6367 447.114 61.36V55.86H452.174V86H447.114V80.39C446.124 82.15 444.639 83.6167 442.659 84.79C440.715 85.9267 438.442 86.495 435.839 86.495C433.162 86.495 430.742 85.835 428.579 84.515C426.415 83.195 424.71 81.3433 423.464 78.96C422.217 76.5767 421.594 73.8633 421.594 70.82ZM447.114 70.875C447.114 68.6017 446.655 66.6217 445.739 64.935C444.822 63.2483 443.575 61.965 441.999 61.085C440.459 60.1683 438.754 59.71 436.884 59.71C435.014 59.71 433.309 60.15 431.769 61.03C430.229 61.91 429 63.1933 428.084 64.88C427.167 66.5667 426.709 68.5467 426.709 70.82C426.709 73.13 427.167 75.1467 428.084 76.87C429 78.5567 430.229 79.8583 431.769 80.775C433.309 81.655 435.014 82.095 436.884 82.095C438.754 82.095 440.459 81.655 441.999 80.775C443.575 79.8583 444.822 78.5567 445.739 76.87C446.655 75.1467 447.114 73.1483 447.114 70.875ZM475.316 55.31C478.983 55.31 481.953 56.4283 484.226 58.665C486.5 60.865 487.636 64.055 487.636 68.235V86H482.686V68.95C482.686 65.9433 481.935 63.6517 480.431 62.075C478.928 60.4617 476.875 59.655 474.271 59.655C471.631 59.655 469.523 60.48 467.946 62.13C466.406 63.78 465.636 66.1817 465.636 69.335V86H460.631V55.86H465.636V60.15C466.626 58.61 467.965 57.4183 469.651 56.575C471.375 55.7317 473.263 55.31 475.316 55.31ZM498.397 50.965C497.444 50.965 496.637 50.635 495.977 49.975C495.317 49.315 494.987 48.5083 494.987 47.555C494.987 46.6017 495.317 45.795 495.977 45.135C496.637 44.475 497.444 44.145 498.397 44.145C499.314 44.145 500.084 44.475 500.707 45.135C501.367 45.795 501.697 46.6017 501.697 47.555C501.697 48.5083 501.367 49.315 500.707 49.975C500.084 50.635 499.314 50.965 498.397 50.965ZM500.817 55.86V86H495.812V55.86H500.817ZM513.087 81.875H527.882V86H507.367V81.875L521.997 59.93H507.477V55.86H527.772V59.93L513.087 81.875ZM561.877 69.775C561.877 70.7283 561.822 71.7367 561.712 72.8H537.622C537.805 75.77 538.813 78.0983 540.647 79.785C542.517 81.435 544.772 82.26 547.412 82.26C549.575 82.26 551.372 81.765 552.802 80.775C554.268 79.7483 555.295 78.3917 555.882 76.705H561.272C560.465 79.6017 558.852 81.9667 556.432 83.8C554.012 85.5967 551.005 86.495 547.412 86.495C544.552 86.495 541.985 85.8533 539.712 84.57C537.475 83.2867 535.715 81.4717 534.432 79.125C533.148 76.7417 532.507 73.9917 532.507 70.875C532.507 67.7583 533.13 65.0267 534.377 62.68C535.623 60.3333 537.365 58.5367 539.602 57.29C541.875 56.0067 544.478 55.365 547.412 55.365C550.272 55.365 552.802 55.9883 555.002 57.235C557.202 58.4817 558.888 60.205 560.062 62.405C561.272 64.5683 561.877 67.025 561.877 69.775ZM556.707 68.73C556.707 66.8233 556.285 65.1917 555.442 63.835C554.598 62.4417 553.443 61.3967 551.977 60.7C550.547 59.9667 548.952 59.6 547.192 59.6C544.662 59.6 542.498 60.4067 540.702 62.02C538.942 63.6333 537.933 65.87 537.677 68.73H556.707ZM566.613 70.82C566.613 67.74 567.236 65.045 568.483 62.735C569.73 60.3883 571.435 58.5733 573.598 57.29C575.798 56.0067 578.255 55.365 580.968 55.365C583.315 55.365 585.496 55.915 587.513 57.015C589.53 58.0783 591.07 59.49 592.133 61.25V45.3H597.193V86H592.133V80.335C591.143 82.1317 589.676 83.6167 587.733 84.79C585.79 85.9267 583.516 86.495 580.913 86.495C578.236 86.495 575.798 85.835 573.598 84.515C571.435 83.195 569.73 81.3433 568.483 78.96C567.236 76.5767 566.613 73.8633 566.613 70.82ZM592.133 70.875C592.133 68.6017 591.675 66.6217 590.758 64.935C589.841 63.2483 588.595 61.965 587.018 61.085C585.478 60.1683 583.773 59.71 581.903 59.71C580.033 59.71 578.328 60.15 576.788 61.03C575.248 61.91 574.02 63.1933 573.103 64.88C572.186 66.5667 571.728 68.5467 571.728 70.82C571.728 73.13 572.186 75.1467 573.103 76.87C574.02 78.5567 575.248 79.8583 576.788 80.775C578.328 81.655 580.033 82.095 581.903 82.095C583.773 82.095 585.478 81.655 587.018 80.775C588.595 79.8583 589.841 78.5567 590.758 76.87C591.675 75.1467 592.133 73.1483 592.133 70.875Z" fill="#FDFDFD"/>
<path d="M628.311 77.475H611.591L608.511 86H603.231L617.091 47.885H622.866L636.671 86H631.391L628.311 77.475ZM626.881 73.405L619.951 54.045L613.021 73.405H626.881ZM647.717 47.665V86H642.712V47.665H647.717Z" fill="#9E6EF5"/>
<g clip-path="url(#clip0_65_42)">
<path d="M78.5821 55.9001L101.507 31.3H135.896L155 51.1693V89.0156L135.997 108.885H101.562L78.5821 84.2848V55.9001Z" fill="#AC92F5"/>
<path d="M92.9104 59.6848L106.284 45.4924H130.164L141.627 56.8463V83.3387L130.164 94.6926H106.284L92.9104 80.8663V59.6848Z" fill="#12111A"/>
<path d="M41.3284 70.0925L75.7164 31.3H96.7313L60.4328 70.0925L96.7313 108.885H75.7164L41.3284 70.0925Z" fill="#FDFDFD"/>
<path d="M27 109V33.1923L42.2836 19V63.4693L37.5075 70.0924L42.2836 80.5002V108.885L27 109Z" fill="#FDFDFD"/>
<path d="M131.009 66.8474C131.934 67.7614 133.027 68.4916 134.23 68.9985C134.699 69.1985 135.774 69.681 136.269 69.8045C134.503 70.2545 132.3 71.5437 131.009 72.8197C130.087 73.7359 129.349 74.8186 128.838 76.0094C128.635 76.4767 128.087 77.5409 127.963 78.0319C127.509 76.2823 126.268 74.0983 124.98 72.8197C124.055 71.9057 122.962 71.1755 121.76 70.6686C121.288 70.4679 120.152 69.9278 119.657 69.8045C120.152 69.6805 121.289 69.1992 121.76 68.9985C122.962 68.4915 124.055 67.7613 124.98 66.8474C126.268 65.5685 127.508 63.3261 127.963 61.577C128.417 63.3263 129.721 65.5689 131.009 66.8474Z" fill="#AC92F5"/>
</g>
<defs>
<clipPath id="clip0_65_42">
<rect width="128" height="90" fill="white" transform="translate(27 19)"/>
</clipPath>
</defs>
</svg>
